<?xml version="1.0" encoding="UTF-8"?>
<svg width="87px" height="36px" viewBox="0 0 87 36" version="1.1" xmlns="http://www.w3.org/2000/svg" xmlns:xlink="http://www.w3.org/1999/xlink">
    <!-- Generator: sketchtool 59.1 (101010) - https://sketch.com -->
    <title>B80A0C5D-977C-403F-9E90-D4FCBE189731</title>
    <desc>Created with sketchtool.</desc>
    <g id="Page-1" stroke="none" stroke-width="1" fill="none" fill-rule="evenodd">
        <g id="Logged-out-Home" transform="translate(-323.000000, -14.000000)" fill-rule="nonzero">
            <g id="Group-16">
                <g id="Group-11" transform="translate(323.000000, 14.000000)">
                    <g id="Group-12">
                        <g id="Group-Copy-2">
                            <g id="Covid_Naukri_Whitebg-Copy-3">
                                <path d="M41.8168429,4.49649515 L41.8959016,4.47211602 C43.9400278,3.9227579 46.0604833,4.24596877 47.5854624,5.42604609 C49.1859947,6.66380921 50.0718156,8.96808559 50.1275438,11.4810702 C50.1688196,13.2289545 49.6455728,14.9013548 48.6272418,16.1107124 C47.6832265,17.2301511 46.2888037,17.9690349 44.8161091,18.1360105 C43.1557387,18.3246503 41.8314494,18.1510126 40.7886142,17.4974924 L40.7023616,17.441919 L40.5456166,17.3347153 L40.3851103,17.2282457 L40.0463072,17.0113098 L39.6430954,16.7582479 L39.6745281,21.2407926 L39.6773395,21.7342417 C39.6773385,22.0082056 39.4647974,22.2331998 39.1952101,22.2530878 L39.1563263,22.2545168 L36.4197481,22.2545168 C36.1480516,22.2545168 35.9243535,22.0463822 35.900786,21.7799315 L35.8987973,21.7414866 L35.6457979,5.23804973 C35.6423293,4.96187202 35.8526265,4.73351276 36.1228827,4.710894 L36.1600929,4.70909969 L38.7015191,4.6759803 C38.9690649,4.6724937 39.1934708,4.87166195 39.2254356,5.13327088 L39.2286767,5.17105319 L39.2897844,6.39902931 L39.7163007,5.89271804 C40.1413129,5.38819199 41.0077822,4.7831205 41.7364735,4.52385651 L41.8168429,4.49649515 L41.8959016,4.47211602 L41.8168429,4.49649515 Z M6.00453948,0.0312511018 L6.12759902,0.026177285 C7.47437465,-0.0202632541 8.75270381,0.282538608 9.77048802,0.925568032 C11.0232346,1.71591671 11.8585209,3.11289126 12.0022416,4.58737623 L12.0112303,4.6928039 L12.0126373,4.72820221 C12.0150975,4.91723632 11.8728911,5.0744612 11.6887036,5.09448342 L11.6537015,5.09660401 L11.3755472,5.10286284 L9.98802803,5.14482471 L9.22431914,5.15677942 L9.0389205,5.15785209 L8.78464044,5.15695573 L8.48213026,5.15296306 L8.34329424,5.13543573 C8.14171662,5.10998584 7.97095094,4.97766137 7.89500253,4.79160388 L7.88020249,4.75093135 L7.8517457,4.66600282 C7.70565726,4.24849864 7.50151136,3.93809447 7.19473297,3.73583791 C6.77257442,3.4583705 6.20488913,3.44552264 5.66531571,3.64278604 C5.30671362,3.77318639 5.02670292,3.9692851 4.86355097,4.25046185 C4.74905563,4.44774614 4.69859476,4.67641114 4.69455112,4.9372263 C4.67437142,6.14065904 5.451828,6.84048265 7.0422902,7.47152613 L7.23315522,7.54547545 L7.54166445,7.65824892 L8.34008818,7.94132381 L8.55273884,8.01991555 L8.70723123,8.08006108 C8.82925278,8.1288696 8.93525611,8.17476526 9.03114414,8.22051575 C10.4695441,8.90672491 11.5433676,9.8534095 12.0671143,11.0143593 C12.9223356,12.9117046 12.2721106,15.4877667 10.6337222,16.8282662 C8.03276986,18.9547592 3.65618439,18.6228645 1.29485774,16.1831043 L1.22392315,16.1085273 C0.249402713,15.1115775 0.0678379231,13.678615 0.0331389191,13.1255572 L0.0263460047,12.9828567 L0.0239628818,12.8954725 L0.0215430559,12.7329632 C0.0215430559,12.7070498 0.0215430559,12.6817439 0.0215430559,12.6570784 L0.02250537,12.5850358 L0.0247541181,12.55179 C0.0428041268,12.3988219 0.164898446,12.2780759 0.318057561,12.2617231 L0.36239558,12.2597678 L2.03058412,12.248434 L2.35892122,12.2450208 L2.74685576,12.2432671 C2.92467358,12.2429642 3.11042633,12.2432862 3.30704063,12.2441923 L3.81194236,12.2479648 C3.98916253,12.2494559 4.13445685,12.3844159 4.15225232,12.5572724 L4.15407151,12.5901037 L4.15560996,12.6554482 C4.19095772,13.5675563 4.80448163,14.3621504 5.76843011,14.5954286 C6.11986882,14.6799996 6.46572946,14.6786538 6.77334114,14.5738631 C8.19295778,14.0917919 8.34271102,12.2641782 7.23484623,11.3185765 C6.77334306,10.9248405 6.32113052,10.6789066 5.46207157,10.3121349 L5.357005,10.267525 L4.8782549,10.066324 L4.65601066,9.97041885 C4.58957474,9.94117789 4.52915512,9.91393247 4.46986432,9.886487 L4.35133968,9.83067882 L4.23306552,9.77328792 C2.39103062,8.86806317 1.06489301,7.67642428 0.583036762,6.24451639 C0.0904881077,4.78618558 0.565582891,3.02025949 1.72103126,1.82758663 C2.74595357,0.772325825 4.25424276,0.144963939 5.88222229,0.0382750566 L6.00453948,0.0312511018 L6.12759902,0.026177285 L6.00453948,0.0312511018 Z M21.9645744,7.14252839 C24.5124466,3.64212595 29.9003393,3.37993045 32.7405266,6.58212262 L32.8258073,6.6802194 L32.9103323,6.78146157 C33.8976498,7.98870797 34.411429,9.63222635 34.3687363,11.2689376 L34.3626201,11.4482114 C34.3553179,11.7378332 34.361656,12.2260791 33.8248736,12.2363464 L33.2030732,12.2456307 C32.8378575,12.2499021 32.4113201,12.2532585 31.9270728,12.2557724 L31.3760839,12.258184 L28.5574554,12.261478 L24.584561,12.2553835 C24.2870875,12.2553834 24.227881,12.4891958 24.2808655,12.7455865 C24.3081868,12.8777939 24.3715237,13.0435809 24.457843,13.2171003 C24.7652088,13.8418061 25.2240211,14.3749063 25.7905356,14.7574663 C26.4327936,15.1910813 27.1675702,15.3907875 27.847885,15.2682663 C28.451122,15.1604957 28.9940782,14.8140909 29.5209305,14.2686058 L29.6020365,14.182898 C29.6870479,14.0912094 29.8026077,14.0347015 29.9260312,14.0232761 L29.9726394,14.0211242 L33.4220707,14.0211242 C33.4606278,14.021112 33.4986527,14.0301133 33.5331179,14.0473993 C33.6466643,14.1043484 33.6973785,14.2367576 33.6549403,14.3532874 L33.6434793,14.3798554 L33.6029474,14.4590407 C32.6538656,16.2765091 30.5708533,17.782588 28.4935051,18.1490186 C25.1499753,18.7399882 21.6789716,16.3041472 20.8365894,12.9026872 C20.351273,10.9436117 20.7756269,8.77473683 21.9645744,7.14252839 Z M15.3866797,0.956142027 L17.8893096,0.956142027 C18.1556812,0.956142027 18.3739106,1.16226358 18.3931992,1.42370828 L18.3945851,1.46141758 L18.3945851,5.42034764 L19.8296959,5.47241 C20.0885041,5.48179895 20.2960291,5.68465665 20.3152065,5.93885617 L20.3166534,5.9773534 L20.3166534,7.6338638 C20.3166534,7.9002354 20.1105318,8.11846476 19.8490871,8.13775344 L19.8113778,8.13913934 L18.4294492,8.13913934 L18.4294492,17.7323011 C18.4294492,17.9986727 18.2233276,18.2169021 17.9618829,18.2361907 L17.9241736,18.2375766 L15.3866797,18.2375766 C15.1203081,18.2375766 14.9020788,18.0314551 14.8827901,17.7700104 L14.8814042,17.7323011 L14.8814042,8.06789549 L13.3600195,8.06789549 C13.0936479,8.06789549 12.8754185,7.86177395 12.8561298,7.60032925 L12.8547439,7.56261992 L12.8547439,5.9346221 C12.8547439,5.66825047 13.0608655,5.45002111 13.3223102,5.43073243 L13.3600195,5.42934653 L14.8814042,5.42934653 L14.8814042,1.46141758 C14.8814042,1.19504596 15.0875257,0.976816606 15.3489704,0.957527931 L15.3866797,0.956142027 L17.8893096,0.956142027 L15.3866797,0.956142027 Z M43.1698823,7.79173805 C41.2022046,7.79173805 39.6066794,9.38830635 39.6066794,11.3565038 C39.6066794,13.3244412 41.2019449,14.9197065 43.1698823,14.9197065 C45.1378196,14.9197065 46.7330848,13.3244412 46.7330848,11.3565038 C46.7330848,9.38830635 45.1375599,7.79173805 43.1698823,7.79173805 Z M27.7617314,7.43190209 C26.7579522,7.33108892 25.8782192,7.72392774 25.1345325,8.44376147 C24.8757278,8.69426532 24.6508583,8.96851041 24.4597626,9.2485556 C24.3805045,9.36470605 24.316713,9.46717244 24.2685123,9.55067932 L24.2457117,9.59082836 L24.2079198,9.66106055 L24.015346,10.036665 L30.7764183,10.036665 L30.6676624,9.67785964 C30.6413203,9.59797958 30.594229,9.4802684 30.5227984,9.3361706 C30.3905719,9.0694284 30.2172977,8.80314153 29.9973706,8.55412954 C29.4507626,7.93523431 28.7114875,7.52674022 27.7617314,7.43190209 Z" id="Shape" fill="#FFFFFF"></path>
                                <g id="Group-3" transform="translate(53.863479, 1.220236)">
                                    <path d="M24.507112,3.07307886 C26.5929551,2.51250937 28.7566853,2.84231635 30.3127864,4.04647687 C31.9459825,5.30950044 32.8498814,7.66080283 32.9067467,10.2250727 C32.948865,12.0086281 32.4149395,13.7151591 31.3758265,14.9491974 C30.4125455,16.0914817 28.989665,16.8454448 27.4869157,17.015828 C25.7455976,17.2136646 24.366536,17.0210077 23.2892142,16.3075715 L23.2892142,16.3075715 L23.1292704,16.1981799 L22.9654882,16.0895375 L22.6197709,15.8681743 L22.2083302,15.6099479 L22.2404045,20.183973 L22.2432732,20.6874925 C22.2432721,20.9803596 22.0052466,21.2183854 21.7116271,21.2183854 L21.7116271,21.2183854 L18.9192006,21.2183854 C18.628757,21.2183854 18.3920675,20.9852947 18.3876179,20.6948852 L18.3876179,20.6948852 L18.1294995,3.85464385 C18.1257511,3.56002015 18.360464,3.31872744 18.6542463,3.31489892 L18.6542463,3.31489892 L21.2475383,3.28110362 C21.5335444,3.27737646 21.7712379,3.50060322 21.7854541,3.78628006 L21.7854541,3.78628006 L21.847809,5.03931688 L22.2830295,4.52267275 C22.7327779,3.98878274 23.6669786,3.34455481 24.4264398,3.09795552 L24.4264398,3.09795552 L24.507112,3.07307886 Z M15.427705,7.9136624 L15.427705,9.37928889 C15.427705,13.6358434 11.9770858,17.0864627 7.72053123,17.0864627 C4.81398127,17.0864627 2.28321624,15.4775361 0.970275789,13.1017227 C7.72053123,10.6932989 11.7636388,9.17713351 15.427705,7.9136624 L15.427705,7.9136624 Z M25.8070922,6.46044821 C23.799258,6.46044821 22.1711712,8.08959951 22.1711712,10.0979642 C22.1711712,12.1060636 23.7989929,13.7338853 25.8070922,13.7338853 C27.8151916,13.7338853 29.4430134,12.1060636 29.4430134,10.0979642 C29.4430134,8.08959951 27.8149265,6.46044821 25.8070922,6.46044821 Z" id="Combined-Shape" fill="#F16122"></path>
                                    <path d="M0.0133574183,9.37928889 C0.0133574183,10.1812521 0.135844288,10.954607 0.363130686,11.6816662 C5.44628322,9.93521618 8.98400235,8.67174507 15.427705,6.14480283 C15.427705,4.64953333 15.427705,2.60126572 15.427705,1.98951966e-13 C9.64428943,2.19938527 5.95578169,3.44676766 1.06620377,5.24946965 C1.06620377,5.24946965 1.06620377,5.24946965 1.06620377,5.24946965 C0.490665857,5.42040586 0.0809394868,5.92962703 0.0371478317,6.52841361 C0.0212855191,6.74522344 0.0133574183,6.87240505 0.0133574183,6.909958 C0.0133574183,7.4358729 0.0133574183,8.2589832 0.0133574183,9.37928889 Z" id="Path-Copy" fill="#FF9900"></path>
                                </g>
                            </g>
                        </g>
                        <path d="M11.8678857,27.4656 L13.3174857,31.0752 L14.6614857,27.4656 L16.1494857,27.4656 L12.8950857,35.3184 L11.3974857,35.3184 L12.5974857,32.6304 L10.3606857,27.4656 L11.8678857,27.4656 Z M5.3536,25.68 L5.3536,28.5696 C5.48800067,28.2111982 5.71359842,27.9264011 6.0304,27.7152 C6.34720158,27.5039989 6.72959776,27.3984 7.1776,27.3984 C7.62560224,27.3984 8.02879821,27.5071989 8.3872,27.7248 C8.74560179,27.9424011 9.02559899,28.2575979 9.2272,28.6704 C9.42880101,29.0832021 9.5296,29.5679972 9.5296,30.1248 C9.5296,30.6816028 9.42880101,31.1663979 9.2272,31.5792 C9.02559899,31.9920021 8.74560179,32.3071989 8.3872,32.5248 C8.02879821,32.7424011 7.62560224,32.8512 7.1776,32.8512 C6.72959776,32.8512 6.34720158,32.7440011 6.0304,32.5296 C5.71359842,32.3151989 5.48800067,32.0288018 5.3536,31.6704 L5.3536,32.784 L4,32.784 L4,25.68 L5.3536,25.68 Z M30.5704234,27.3984 C31.0184256,27.3984 31.4024218,27.5039989 31.7224234,27.7152 C32.042425,27.9264011 32.2696227,28.2111982 32.4040234,28.5696 L32.4040234,27.4656 L33.7480234,27.4656 L33.7480234,32.784 L32.4040234,32.784 L32.4040234,31.6704 C32.2696227,32.0288018 32.042425,32.3151989 31.7224234,32.5296 C31.4024218,32.7440011 31.0184256,32.8512 30.5704234,32.8512 C30.1224212,32.8512 29.7192252,32.7424011 29.3608234,32.5248 C29.0024216,32.3071989 28.7224244,31.9920021 28.5208234,31.5792 C28.3192224,31.1663979 28.2184234,30.6816028 28.2184234,30.1248 C28.2184234,29.5679972 28.3192224,29.0832021 28.5208234,28.6704 C28.7224244,28.2575979 29.0024216,27.9424011 29.3608234,27.7248 C29.7192252,27.5071989 30.1224212,27.3984 30.5704234,27.3984 Z M37.0476805,27.4656 L37.0476805,30.4032 C37.0476805,30.8256021 37.1564795,31.1535988 37.3740805,31.3872 C37.5916816,31.6208012 37.8860787,31.7376 38.2572805,31.7376 C38.6476825,31.7376 38.9580794,31.6128012 39.1884805,31.3632 C39.4188817,31.1135988 39.5340805,30.7552023 39.5340805,30.288 L39.5340805,27.4656 L40.8876805,27.4656 L40.8876805,32.784 L39.5340805,32.784 L39.5340805,31.7088 C39.3932798,32.0672018 39.1612822,32.347199 38.8380805,32.5488 C38.5148789,32.750401 38.1420827,32.8512 37.7196805,32.8512 C37.1052775,32.8512 36.6156824,32.649602 36.2508805,32.2464 C35.8860787,31.843198 35.7036805,31.2800036 35.7036805,30.5568 L35.7036805,27.4656 L37.0476805,27.4656 Z M62.6275663,27.3984 C63.3123697,27.3984 63.883564,27.5839981 64.3411663,27.9552 C64.7987685,28.3264019 65.0851657,28.8319968 65.2003663,29.472 L63.7699663,29.472 C63.712366,29.1903986 63.5811673,28.9680008 63.3763663,28.8048 C63.1715652,28.6415992 62.9123678,28.56 62.5987663,28.56 C62.2403645,28.56 61.9411675,28.6927987 61.7011663,28.9584 C61.4611651,29.2240013 61.3411663,29.6127974 61.3411663,30.1248 C61.3411663,30.6368026 61.4611651,31.0255987 61.7011663,31.2912 C61.9411675,31.5568013 62.2403645,31.6896 62.5987663,31.6896 C62.9123678,31.6896 63.1715652,31.6080008 63.3763663,31.4448 C63.5811673,31.2815992 63.712366,31.0592014 63.7699663,30.7776 L65.2003663,30.7776 C65.0851657,31.4176032 64.7987685,31.9231981 64.3411663,32.2944 C63.883564,32.6656019 63.3123697,32.8512 62.6275663,32.8512 C62.1091637,32.8512 61.6483683,32.7408011 61.2451663,32.52 C60.8419642,32.2991989 60.5283674,31.984002 60.3043663,31.5744 C60.0803651,31.164798 59.9683663,30.6816028 59.9683663,30.1248 C59.9683663,29.5679972 60.0803651,29.0832021 60.3043663,28.6704 C60.5283674,28.2575979 60.8419642,27.9424011 61.2451663,27.7248 C61.6483683,27.5071989 62.1091637,27.3984 62.6275663,27.3984 Z M69.4408234,27.3984 C69.959226,27.3984 70.4248213,27.5071989 70.8376234,27.7248 C71.2504255,27.9424011 71.5752222,28.2575979 71.8120234,28.6704 C72.0488246,29.0832021 72.1672234,29.5679972 72.1672234,30.1248 C72.1672234,30.6816028 72.0488246,31.164798 71.8120234,31.5744 C71.5752222,31.984002 71.2504255,32.2991989 70.8376234,32.52 C70.4248213,32.7408011 69.959226,32.8512 69.4408234,32.8512 C68.9224208,32.8512 68.4568255,32.7408011 68.0440234,32.52 C67.6312213,32.2991989 67.3064246,31.984002 67.0696234,31.5744 C66.8328222,31.164798 66.7144234,30.6816028 66.7144234,30.1248 C66.7144234,29.5679972 66.8328222,29.0832021 67.0696234,28.6704 C67.3064246,28.2575979 67.6312213,27.9424011 68.0440234,27.7248 C68.4568255,27.5071989 68.9224208,27.3984 69.4408234,27.3984 Z M80.7180805,27.3888 C81.3644838,27.3888 81.8748787,27.588798 82.2492805,27.9888 C82.6236824,28.3888 82.8108805,28.9567963 82.8108805,29.6928 L82.8108805,32.784 L81.4668805,32.784 L81.4668805,29.8464 C81.4668805,29.436798 81.3628816,29.1216011 81.1548805,28.9008 C80.9468795,28.6799989 80.6604824,28.5696 80.2956805,28.5696 C79.9180787,28.5696 79.6172817,28.6879988 79.3932805,28.9248 C79.1692794,29.1616012 79.0572805,29.5071977 79.0572805,29.9616 L79.0572805,32.784 L77.7132805,32.784 L77.7132805,29.8464 C77.7132805,29.436798 77.6092816,29.1216011 77.4012805,28.9008 C77.1932795,28.6799989 76.9068824,28.5696 76.5420805,28.5696 C76.1644787,28.5696 75.8636817,28.6879988 75.6396805,28.9248 C75.4156794,29.1616012 75.3036805,29.5071977 75.3036805,29.9616 L75.3036805,32.784 L73.9500805,32.784 L73.9500805,27.4656 L75.3036805,27.4656 L75.3036805,28.4736 C75.4444812,28.1279983 75.666879,27.8608009 75.9708805,27.672 C76.2748821,27.4831991 76.6284785,27.3888 77.0316805,27.3888 C77.4604827,27.3888 77.833279,27.491199 78.1500805,27.696 C78.4668821,27.900801 78.7052797,28.1951981 78.8652805,28.5792 C79.0316814,28.2143982 79.2796789,27.9248011 79.6092805,27.7104 C79.9388822,27.4959989 80.3084785,27.3888 80.7180805,27.3888 Z M24.4579663,27.3888 C25.0723693,27.3888 25.5619644,27.590398 25.9267663,27.9936 C26.2915681,28.396802 26.4739663,28.9631964 26.4739663,29.6928 L26.4739663,32.784 L25.1299663,32.784 L25.1299663,29.8464 C25.1299663,29.4239979 25.0211673,29.0960012 24.8035663,28.8624 C24.5859652,28.6287988 24.2883681,28.512 23.9107663,28.512 C23.5267643,28.512 23.2195674,28.6367988 22.9891663,28.8864 C22.7587651,29.1360012 22.6435663,29.4943977 22.6435663,29.9616 L22.6435663,32.784 L21.2899663,32.784 L21.2899663,27.4656 L22.6435663,27.4656 L22.6435663,28.5312 C22.784367,28.1727982 23.0163646,27.892801 23.3395663,27.6912 C23.6627679,27.489599 24.0355641,27.3888 24.4579663,27.3888 Z M52.4117948,27.3888 L52.4117948,28.8384 L52.0181948,28.8384 C51.0261899,28.8384 50.5301948,29.2991954 50.5301948,30.2208 L50.5301948,32.784 L49.1765948,32.784 L49.1765948,27.4656 L50.5301948,27.4656 L50.5301948,28.4832 C50.7285958,28.1439983 50.9909932,27.876801 51.3173948,27.6816 C51.6437965,27.486399 52.0085928,27.3888 52.4117948,27.3888 Z M44.2929377,25.68 L44.2929377,29.6736 L46.0401377,27.4656 L47.6433377,27.4656 L45.4065377,30.1152 L47.7009377,32.784 L46.0497377,32.784 L44.2929377,30.4608 L44.2929377,32.784 L42.9393377,32.784 L42.9393377,25.68 L44.2929377,25.68 Z M55.337052,27.4656 L55.337052,32.784 L53.983452,32.784 L53.983452,27.4656 L55.337052,27.4656 Z M58.5119091,31.3728 L58.5119091,32.784 L57.0527091,32.784 L57.0527091,31.3728 L58.5119091,31.3728 Z M69.4408234,28.5696 C69.0632215,28.5696 68.7432247,28.7023987 68.4808234,28.968 C68.2184221,29.2336013 68.0872234,29.6191975 68.0872234,30.1248 C68.0872234,30.6304025 68.2184221,31.0159987 68.4808234,31.2816 C68.7432247,31.5472013 69.0632215,31.68 69.4408234,31.68 C69.8184253,31.68 70.1384221,31.5472013 70.4008234,31.2816 C70.6632247,31.0159987 70.7944234,30.6304025 70.7944234,30.1248 C70.7944234,29.6191975 70.6632247,29.2336013 70.4008234,28.968 C70.1384221,28.7023987 69.8184253,28.5696 69.4408234,28.5696 Z M30.9928234,28.5792 C30.5704213,28.5792 30.2312247,28.7167986 29.9752234,28.992 C29.7192221,29.2672014 29.5912234,29.6447976 29.5912234,30.1248 C29.5912234,30.6048024 29.7192221,30.9807986 29.9752234,31.2528 C30.2312247,31.5248014 30.5704213,31.6608 30.9928234,31.6608 C31.4024254,31.6608 31.7400221,31.5216014 32.0056234,31.2432 C32.2712247,30.9647986 32.4040234,30.5920023 32.4040234,30.1248 C32.4040234,29.6511976 32.2712247,29.2752014 32.0056234,28.9968 C31.7400221,28.7183986 31.4024254,28.5792 30.9928234,28.5792 Z M6.7552,28.5792 C6.34559795,28.5792 6.00800133,28.7183986 5.7424,28.9968 C5.47679867,29.2752014 5.344,29.6511976 5.344,30.1248 C5.344,30.5920023 5.47679867,30.9647986 5.7424,31.2432 C6.00800133,31.5216014 6.34559795,31.6608 6.7552,31.6608 C7.17760211,31.6608 7.51679872,31.5248014 7.7728,31.2528 C8.02880128,30.9807986 8.1568,30.6048024 8.1568,30.1248 C8.1568,29.6447976 8.02880128,29.2672014 7.7728,28.992 C7.51679872,28.7167986 7.17760211,28.5792 6.7552,28.5792 Z M54.665052,25.2 C54.9146532,25.2 55.1162512,25.2687993 55.269852,25.4064 C55.4234527,25.5440007 55.500252,25.7215989 55.500252,25.9392 C55.500252,26.1504011 55.4234527,26.3247993 55.269852,26.4624 C55.1162512,26.6000007 54.9146532,26.6688 54.665052,26.6688 C54.4154507,26.6688 54.2138527,26.6000007 54.060252,26.4624 C53.9066512,26.3247993 53.829852,26.1504011 53.829852,25.9392 C53.829852,25.7215989 53.9066512,25.5440007 54.060252,25.4064 C54.2138527,25.2687993 54.4154507,25.2 54.665052,25.2 Z" id="Combined-Shape" fill="#FFFFFF"></path>
                    </g>
                </g>
            </g>
        </g>
    </g>
</svg>